<?xml version="1.0" encoding="utf-8"?>
<!-- Generator: Adobe Illustrator 23.0.3, SVG Export Plug-In . SVG Version: 6.00 Build 0)  -->
<svg version="1.1" id="Camada_1" xmlns="http://www.w3.org/2000/svg" xmlns:xlink="http://www.w3.org/1999/xlink" x="0px" y="0px"
	 viewBox="0 0 1921 1081" style="enable-background:new 0 0 1921 1081;" xml:space="preserve">
<style type="text/css">
	.st0{fill:url(#SVGID_1_);}
	.st1{fill:#FFC20E;}
	.st2{fill:#4F2D7A;}
</style>
<linearGradient id="SVGID_1_" gradientUnits="userSpaceOnUse" x1="-475.6692" y1="541.3625" x2="2986.9482" y2="541.3625">
	<stop  offset="0" style="stop-color:#733B80"/>
	<stop  offset="0.5001" style="stop-color:#563A8A"/>
	<stop  offset="1" style="stop-color:#3A3A94"/>
</linearGradient>
<rect x="-0.3" y="2.7" class="st0" width="1921.3" height="1077.3"/>
<g>
	<g>
		<polygon class="st1" points="552.1,447.1 552.4,446.7 552,446.8 		"/>
		<g>
			<polygon class="st1" points="552.1,447.1 552.4,446.7 552,446.8 			"/>
		</g>
	</g>
</g>
<path class="st1" d="M1404.8,0c-8,46.7-28.3,90.7-59.5,128c-46.6,55.6-112.1,89.8-184.3,96.1c-8.2,0.7-16.3,1.1-24.4,1.1
	c-63.6,0-124.6-22.1-174-63.4C912.9,120.1,880.3,63.3,869.5,0h-78.2c5.5,41.2,18.1,80.6,37.5,117.2c21.2,39.9,49.5,74.8,84.2,103.9
	s74.1,50.9,117.1,64.7c34.6,11.2,70.3,16.8,106.5,16.8c10.4,0,20.8-0.5,31.2-1.4c46.9-4.1,91.6-17.4,132.9-39.3
	c39.9-21.2,74.8-49.5,103.9-84.2s50.9-74.1,64.7-117.1c6.4-19.9,11-40.1,13.7-60.6H1404.8z"/>
<path class="st1" d="M1921,345.2c-45,1.8-88.6,12.2-129.8,30.8c-41.3,18.7-78,44.7-109.1,77.4c-32.2,33.8-57,73.3-73.6,117.4
	c-14.9,39.5-22.5,80.8-22.6,122.7l77.4,0.1c0-32.6,6-64.7,17.6-95.5c25.6-67.9,76.1-121.7,142.3-151.6c31.4-14.2,64.5-22.2,98-23.9
	V345.2z"/>
<path class="st1" d="M74.4,1081h372c9.7-6.8,19-14.2,27.9-22.1L423,1001c-44.6,39.5-101.9,61.4-161.6,61.7c-0.3,0-0.7,0-1,0
	c-65.1,0-126.3-25.2-172.5-71.1c-46.5-46.1-72.2-107.5-72.4-172.9c-0.3-65.4,25-127.1,71.1-173.5c46.1-46.5,107.5-72.2,172.9-72.4
	l-0.3-77.4c-43.5,0.2-85.7,8.9-125.4,25.8C95.5,537.6,61.1,561,31.6,590.7c-11.5,11.6-22.1,24-31.6,37v380
	c10,13.7,21.2,26.7,33.4,38.8C46.2,1059.2,59.9,1070.7,74.4,1081z"/>
<rect x="1971.8" y="164.6" class="st2" width="375.2" height="449.2"/>
</svg>
